<mxfile host="Electron" modified="2023-10-16T05:00:28.642Z" agent="Mozilla/5.0 (Windows NT 10.0; Win64; x64) AppleWebKit/537.36 (KHTML, like Gecko) draw.io/21.2.8 Chrome/112.0.5615.165 Electron/24.2.0 Safari/537.36" etag="cmelQDwbPTZxfeuIHVTM" version="21.2.8" type="device">
  <diagram name="페이지-1" id="vYpUhtBlWjCpaYyadkhN">
    <mxGraphModel dx="1418" dy="828" grid="1" gridSize="10" guides="1" tooltips="1" connect="1" arrows="1" fold="1" page="1" pageScale="1" pageWidth="1169" pageHeight="827" math="0" shadow="0">
      <root>
        <mxCell id="0" />
        <mxCell id="1" parent="0" />
        <mxCell id="MHd4tFl28jQDfsMx3L62-2" value="&lt;h1&gt;K8s Cluster&lt;/h1&gt;" style="rounded=1;whiteSpace=wrap;html=1;spacing=0;spacingBottom=400;fillColor=none;" parent="1" vertex="1">
          <mxGeometry x="390" y="40" width="680" height="450" as="geometry" />
        </mxCell>
        <mxCell id="0Lvin2ngda4xUtQWxkm--6" value="Detect VAP" style="edgeStyle=orthogonalEdgeStyle;rounded=0;orthogonalLoop=1;jettySize=auto;html=1;exitX=0;exitY=0.25;exitDx=0;exitDy=0;entryX=1;entryY=0.5;entryDx=0;entryDy=0;" parent="1" source="MHd4tFl28jQDfsMx3L62-14" target="MHd4tFl28jQDfsMx3L62-25" edge="1">
          <mxGeometry relative="1" as="geometry" />
        </mxCell>
        <mxCell id="0Lvin2ngda4xUtQWxkm--7" value="Detect VAP" style="edgeStyle=orthogonalEdgeStyle;rounded=0;orthogonalLoop=1;jettySize=auto;html=1;exitX=0;exitY=0.75;exitDx=0;exitDy=0;entryX=1;entryY=0.5;entryDx=0;entryDy=0;" parent="1" source="MHd4tFl28jQDfsMx3L62-14" target="MHd4tFl28jQDfsMx3L62-17" edge="1">
          <mxGeometry relative="1" as="geometry" />
        </mxCell>
        <mxCell id="0Lvin2ngda4xUtQWxkm--11" value="Make Pod" style="edgeStyle=orthogonalEdgeStyle;rounded=0;orthogonalLoop=1;jettySize=auto;html=1;exitX=1;exitY=0.25;exitDx=0;exitDy=0;entryX=0;entryY=0.5;entryDx=0;entryDy=0;" parent="1" source="MHd4tFl28jQDfsMx3L62-14" target="MHd4tFl28jQDfsMx3L62-37" edge="1">
          <mxGeometry relative="1" as="geometry" />
        </mxCell>
        <mxCell id="0Lvin2ngda4xUtQWxkm--12" value="Make Pod" style="edgeStyle=orthogonalEdgeStyle;rounded=0;orthogonalLoop=1;jettySize=auto;html=1;exitX=1;exitY=0.75;exitDx=0;exitDy=0;entryX=0;entryY=0.5;entryDx=0;entryDy=0;" parent="1" source="MHd4tFl28jQDfsMx3L62-14" target="0Lvin2ngda4xUtQWxkm--9" edge="1">
          <mxGeometry relative="1" as="geometry" />
        </mxCell>
        <mxCell id="MHd4tFl28jQDfsMx3L62-14" value="Piccolo Controller" style="rounded=0;whiteSpace=wrap;html=1;" parent="1" vertex="1">
          <mxGeometry x="730" y="100" width="90" height="230" as="geometry" />
        </mxCell>
        <mxCell id="MHd4tFl28jQDfsMx3L62-17" value="VehPod" style="swimlane;whiteSpace=wrap;html=1;" parent="1" vertex="1">
          <mxGeometry x="420" y="224" width="220" height="98" as="geometry" />
        </mxCell>
        <mxCell id="MHd4tFl28jQDfsMx3L62-18" value="Pod Spec : PONG container&lt;br&gt;Function info :&amp;nbsp;&lt;b style=&quot;border-color: var(--border-color);&quot;&gt;&lt;font style=&quot;border-color: var(--border-color);&quot; color=&quot;#0000ff&quot;&gt;dds-domain-id&lt;/font&gt;&lt;/b&gt;" style="text;html=1;align=left;verticalAlign=middle;resizable=0;points=[];autosize=1;strokeColor=none;fillColor=none;" parent="MHd4tFl28jQDfsMx3L62-17" vertex="1">
          <mxGeometry x="10" y="30" width="180" height="40" as="geometry" />
        </mxCell>
        <mxCell id="0Lvin2ngda4xUtQWxkm--8" value="READ Info" style="edgeStyle=orthogonalEdgeStyle;rounded=0;orthogonalLoop=1;jettySize=auto;html=1;exitX=1;exitY=0.5;exitDx=0;exitDy=0;entryX=0.5;entryY=1;entryDx=0;entryDy=0;" parent="1" source="MHd4tFl28jQDfsMx3L62-19" target="MHd4tFl28jQDfsMx3L62-14" edge="1">
          <mxGeometry relative="1" as="geometry" />
        </mxCell>
        <mxCell id="MHd4tFl28jQDfsMx3L62-19" value="VehContainerConfig" style="swimlane;whiteSpace=wrap;html=1;" parent="1" vertex="1">
          <mxGeometry x="420" y="360" width="220" height="100" as="geometry" />
        </mxCell>
        <mxCell id="MHd4tFl28jQDfsMx3L62-20" value="name : &lt;b&gt;&lt;font color=&quot;#0000ff&quot;&gt;dds-domain-id&lt;/font&gt;&lt;/b&gt;&lt;br&gt;ENV value : ~~~~~" style="text;html=1;align=left;verticalAlign=middle;resizable=0;points=[];autosize=1;strokeColor=none;fillColor=none;" parent="MHd4tFl28jQDfsMx3L62-19" vertex="1">
          <mxGeometry x="10" y="38" width="150" height="40" as="geometry" />
        </mxCell>
        <mxCell id="MHd4tFl28jQDfsMx3L62-28" value="kubectl apply" style="edgeStyle=orthogonalEdgeStyle;rounded=0;orthogonalLoop=1;jettySize=auto;html=1;exitX=1;exitY=0.5;exitDx=0;exitDy=0;entryX=0;entryY=0.5;entryDx=0;entryDy=0;" parent="1" source="0Lvin2ngda4xUtQWxkm--1" target="MHd4tFl28jQDfsMx3L62-25" edge="1">
          <mxGeometry relative="1" as="geometry" />
        </mxCell>
        <mxCell id="MHd4tFl28jQDfsMx3L62-24" value="kubectl apply" style="edgeStyle=orthogonalEdgeStyle;rounded=0;orthogonalLoop=1;jettySize=auto;html=1;exitX=1;exitY=0.5;exitDx=0;exitDy=0;entryX=0;entryY=0.5;entryDx=0;entryDy=0;" parent="1" source="MHd4tFl28jQDfsMx3L62-5" target="MHd4tFl28jQDfsMx3L62-17" edge="1">
          <mxGeometry relative="1" as="geometry" />
        </mxCell>
        <mxCell id="MHd4tFl28jQDfsMx3L62-5" value="cr_vehpod_ddstest-pong.yaml" style="swimlane;whiteSpace=wrap;html=1;" parent="1" vertex="1">
          <mxGeometry x="70" y="224" width="220" height="100" as="geometry" />
        </mxCell>
        <mxCell id="MHd4tFl28jQDfsMx3L62-6" value="kind : VehPod&lt;br&gt;name : &lt;b&gt;&lt;font color=&quot;#ff0000&quot;&gt;ddstest-pong&lt;/font&gt;&lt;/b&gt;&lt;br&gt;Function info : &lt;b style=&quot;&quot;&gt;&lt;font color=&quot;#0000ff&quot;&gt;dds-domain-id&lt;/font&gt;&lt;br&gt;Pod Spec : receiver container&lt;br&gt;&lt;/b&gt;" style="text;html=1;align=left;verticalAlign=middle;resizable=0;points=[];autosize=1;strokeColor=none;fillColor=none;" parent="MHd4tFl28jQDfsMx3L62-5" vertex="1">
          <mxGeometry x="10" y="21" width="190" height="70" as="geometry" />
        </mxCell>
        <mxCell id="MHd4tFl28jQDfsMx3L62-23" value="kubectl apply" style="edgeStyle=orthogonalEdgeStyle;rounded=0;orthogonalLoop=1;jettySize=auto;html=1;exitX=1;exitY=0.5;exitDx=0;exitDy=0;entryX=0;entryY=0.5;entryDx=0;entryDy=0;" parent="1" source="MHd4tFl28jQDfsMx3L62-7" target="MHd4tFl28jQDfsMx3L62-19" edge="1">
          <mxGeometry relative="1" as="geometry" />
        </mxCell>
        <mxCell id="MHd4tFl28jQDfsMx3L62-7" value="cr_vehcontainerconfig_dds.yaml" style="swimlane;whiteSpace=wrap;html=1;" parent="1" vertex="1">
          <mxGeometry x="70" y="360" width="220" height="100" as="geometry" />
        </mxCell>
        <mxCell id="MHd4tFl28jQDfsMx3L62-8" value="kind : VehContainerConfig&lt;br&gt;name : &lt;b&gt;&lt;font color=&quot;#0000ff&quot;&gt;dds-domain-id&lt;/font&gt;&lt;/b&gt;&lt;br&gt;ENV value : ~~~~~" style="text;html=1;align=left;verticalAlign=middle;resizable=0;points=[];autosize=1;strokeColor=none;fillColor=none;" parent="MHd4tFl28jQDfsMx3L62-7" vertex="1">
          <mxGeometry x="10" y="35" width="160" height="60" as="geometry" />
        </mxCell>
        <mxCell id="MHd4tFl28jQDfsMx3L62-12" value="&lt;h1&gt;YAML files&lt;/h1&gt;" style="rounded=1;whiteSpace=wrap;html=1;fillColor=none;spacingBottom=400;" parent="1" vertex="1">
          <mxGeometry x="40" y="40" width="280" height="450" as="geometry" />
        </mxCell>
        <mxCell id="MHd4tFl28jQDfsMx3L62-25" value="VehPod" style="swimlane;whiteSpace=wrap;html=1;" parent="1" vertex="1">
          <mxGeometry x="420" y="108" width="220" height="98" as="geometry">
            <mxRectangle x="200" y="120" width="170" height="30" as="alternateBounds" />
          </mxGeometry>
        </mxCell>
        <mxCell id="MHd4tFl28jQDfsMx3L62-26" value="Pod Spec : PING conatiner&lt;br&gt;Function info : &lt;b&gt;&lt;font color=&quot;#0000ff&quot;&gt;dds-domain-id&lt;/font&gt;&lt;/b&gt;" style="text;html=1;align=left;verticalAlign=middle;resizable=0;points=[];autosize=1;strokeColor=none;fillColor=none;" parent="MHd4tFl28jQDfsMx3L62-25" vertex="1">
          <mxGeometry x="8" y="46" width="180" height="40" as="geometry" />
        </mxCell>
        <mxCell id="0Lvin2ngda4xUtQWxkm--13" style="edgeStyle=orthogonalEdgeStyle;rounded=0;orthogonalLoop=1;jettySize=auto;html=1;exitX=0.5;exitY=1;exitDx=0;exitDy=0;entryX=0.5;entryY=0;entryDx=0;entryDy=0;" parent="1" source="MHd4tFl28jQDfsMx3L62-37" target="0Lvin2ngda4xUtQWxkm--9" edge="1">
          <mxGeometry relative="1" as="geometry" />
        </mxCell>
        <mxCell id="MHd4tFl28jQDfsMx3L62-37" value="Pod" style="swimlane;whiteSpace=wrap;html=1;" parent="1" vertex="1">
          <mxGeometry x="910" y="106" width="130" height="100" as="geometry" />
        </mxCell>
        <mxCell id="MHd4tFl28jQDfsMx3L62-38" value="Send message&lt;br&gt;via DDS" style="text;html=1;align=left;verticalAlign=middle;resizable=0;points=[];autosize=1;strokeColor=none;fillColor=none;" parent="MHd4tFl28jQDfsMx3L62-37" vertex="1">
          <mxGeometry x="10" y="45" width="100" height="40" as="geometry" />
        </mxCell>
        <mxCell id="0Lvin2ngda4xUtQWxkm--1" value="cr_vehpod_ddstest-ping.yaml" style="swimlane;whiteSpace=wrap;html=1;" parent="1" vertex="1">
          <mxGeometry x="70" y="107" width="220" height="100" as="geometry" />
        </mxCell>
        <mxCell id="0Lvin2ngda4xUtQWxkm--2" value="kind : VehPod&lt;br&gt;name : &lt;b&gt;&lt;font color=&quot;#ff0000&quot;&gt;ddstest-ping&lt;/font&gt;&lt;/b&gt;&lt;br&gt;Function info : &lt;b style=&quot;&quot;&gt;&lt;font color=&quot;#0000ff&quot;&gt;dds-domain-id&lt;/font&gt;&lt;br&gt;Pod Spec : sender container&lt;br&gt;&lt;/b&gt;" style="text;html=1;align=left;verticalAlign=middle;resizable=0;points=[];autosize=1;strokeColor=none;fillColor=none;" parent="0Lvin2ngda4xUtQWxkm--1" vertex="1">
          <mxGeometry x="10" y="21" width="190" height="70" as="geometry" />
        </mxCell>
        <mxCell id="0Lvin2ngda4xUtQWxkm--9" value="Pod" style="swimlane;whiteSpace=wrap;html=1;" parent="1" vertex="1">
          <mxGeometry x="910" y="222" width="130" height="100" as="geometry" />
        </mxCell>
        <mxCell id="0Lvin2ngda4xUtQWxkm--10" value="Receive message&lt;br&gt;via DDS" style="text;html=1;align=left;verticalAlign=middle;resizable=0;points=[];autosize=1;strokeColor=none;fillColor=none;" parent="0Lvin2ngda4xUtQWxkm--9" vertex="1">
          <mxGeometry x="10" y="45" width="120" height="40" as="geometry" />
        </mxCell>
      </root>
    </mxGraphModel>
  </diagram>
</mxfile>
